<svg xmlns="http://www.w3.org/2000/svg" style="display: none;">
<symbol id="icon-phone" viewBox="0 0 32 32">
<path fill="#1c274c" style="fill: var(--color1, #1c274c)" d="M20.134 20.036v0zM20.742 19.397v0zM23.964 18.95v0zM26.511 20.416v0zM27.229 25.011v0zM25.335 27.005v0zM23.568 27.951v0zM10.42 21.967v0zM4.004 9.288v0zM12.637 11.337v0zM12.846 7.591v0zM11.164 5.213v0zM7.015 4.812v0zM4.922 7.015v0zM14.751 17.408v0zM20.859 20.725l0.607-0.639-1.45-1.377-0.607 0.639 1.45 1.377zM23.465 19.816l2.547 1.466 0.998-1.733-2.547-1.466-0.998 1.733zM26.504 24.323l-1.894 1.994 1.45 1.377 1.894-1.994-1.45-1.377zM23.47 26.956c-1.913 0.189-6.906 0.028-12.325-5.677l-1.45 1.377c5.906 6.218 11.539 6.53 13.971 6.29l-0.196-1.99zM11.146 21.278c-5.168-5.441-6.035-10.031-6.143-12.044l-1.997 0.107c0.132 2.466 1.179 7.512 6.69 13.314l1.45-1.377zM12.979 12.429l0.382-0.403-1.45-1.377-0.382 0.403 1.45 1.377zM13.662 7.013l-1.681-2.378-1.633 1.155 1.681 2.378 1.633-1.155zM6.29 4.123l-2.093 2.203 1.45 1.377 2.093-2.203-1.45-1.377zM12.254 11.74c-0.725-0.689-0.726-0.688-0.727-0.687s-0.001 0.001-0.002 0.002-0.003 0.003-0.004 0.004-0.005 0.006-0.008 0.009-0.012 0.013-0.018 0.020-0.026 0.031-0.041 0.049c-0.029 0.037-0.062 0.083-0.097 0.137-0.070 0.109-0.145 0.253-0.209 0.433-0.13 0.366-0.201 0.851-0.113 1.456 0.174 1.19 0.954 2.789 2.99 4.933l1.45-1.377c-1.903-2.004-2.372-3.238-2.461-3.846-0.043-0.293 0.001-0.447 0.018-0.496 0.010-0.027 0.016-0.035 0.010-0.025-0.003 0.005-0.009 0.014-0.019 0.026-0.005 0.006-0.011 0.014-0.018 0.022-0.004 0.004-0.008 0.009-0.012 0.013-0.002 0.002-0.004 0.005-0.007 0.007-0.001 0.001-0.002 0.002-0.003 0.004s-0.002 0.002-0.002 0.002-0.002 0.002-0.727-0.687zM14.026 18.097c2.031 2.138 3.564 2.978 4.734 3.168 0.6 0.097 1.086 0.020 1.454-0.125 0.18-0.071 0.322-0.154 0.429-0.23 0.053-0.038 0.098-0.074 0.133-0.105 0.018-0.016 0.034-0.030 0.047-0.044 0.007-0.007 0.013-0.013 0.019-0.019 0.003-0.003 0.006-0.006 0.008-0.009 0.001-0.001 0.003-0.003 0.004-0.004s0.002-0.002 0.002-0.002 0.002-0.002-0.723-0.691-0.724-0.69-0.723-0.691 0.001-0.001 0.002-0.002 0.002-0.002 0.004-0.004 0.005-0.005 0.007-0.007 0.009-0.009 0.013-0.013 0.015-0.014 0.022-0.020c0.013-0.011 0.022-0.018 0.028-0.023 0.013-0.009 0.011-0.006-0.006 0.001-0.026 0.010-0.147 0.053-0.4 0.012-0.537-0.087-1.695-0.561-3.605-2.571l-1.45 1.377zM11.981 4.636c-1.351-1.911-4.056-2.234-5.691-0.513l1.45 1.377c0.697-0.734 1.924-0.676 2.608 0.29l1.633-1.155zM5.002 9.234c-0.029-0.532 0.203-1.066 0.645-1.531l-1.45-1.377c-0.714 0.752-1.258 1.797-1.192 3.015l1.997-0.107zM24.61 26.317c-0.372 0.392-0.761 0.602-1.14 0.639l0.196 1.99c0.996-0.098 1.802-0.63 2.393-1.252l-1.45-1.377zM13.362 12.026c1.29-1.358 1.381-3.484 0.3-5.013l-1.633 1.155c0.563 0.796 0.477 1.855-0.117 2.481l1.45 1.377zM26.012 21.283c1.094 0.63 1.309 2.18 0.492 3.040l1.45 1.377c1.74-1.832 1.233-4.897-0.944-6.151l-0.998 1.733zM21.467 20.086c0.514-0.541 1.315-0.663 1.998-0.269l0.998-1.733c-1.465-0.843-3.281-0.601-4.446 0.625l1.45 1.377z"></path>
</symbol>
<symbol id="icon-whatsapp" viewBox="0 0 32 32">
<path fill="#8dc63f" style="fill: var(--color2, #8dc63f)" d="M23.678 18.388c-0.062-0.030-2.395-1.179-2.81-1.328-0.169-0.061-0.351-0.12-0.543-0.12-0.315 0-0.58 0.157-0.786 0.465-0.233 0.346-0.939 1.171-1.156 1.417-0.029 0.032-0.067 0.071-0.091 0.071-0.021 0-0.382-0.149-0.491-0.196-2.503-1.087-4.402-3.701-4.663-4.142-0.037-0.063-0.039-0.092-0.039-0.092 0.009-0.034 0.093-0.118 0.137-0.161 0.127-0.126 0.265-0.291 0.398-0.452 0.063-0.076 0.126-0.152 0.188-0.224 0.193-0.225 0.279-0.399 0.379-0.602l0.052-0.105c0.244-0.484 0.036-0.892-0.032-1.024-0.055-0.11-1.040-2.488-1.145-2.737-0.252-0.603-0.585-0.883-1.047-0.883-0.043 0 0 0-0.18 0.008-0.219 0.009-1.412 0.166-1.94 0.499-0.559 0.353-1.506 1.477-1.506 3.454 0 1.78 1.129 3.46 1.614 4.099 0.012 0.016 0.034 0.049 0.066 0.096 1.857 2.712 4.172 4.722 6.519 5.659 2.259 0.902 3.329 1.007 3.937 1.007 0 0 0 0 0 0 0.256 0 0.46-0.020 0.641-0.038l0.114-0.011c0.78-0.069 2.496-0.958 2.886-2.042 0.307-0.854 0.388-1.787 0.184-2.125-0.14-0.23-0.381-0.346-0.687-0.493z"></path>
<path fill="#8dc63f" style="fill: var(--color2, #8dc63f)" d="M16.284 0c-8.667 0-15.717 6.998-15.717 15.599 0 2.782 0.744 5.505 2.155 7.889l-2.7 7.963c-0.050 0.148-0.013 0.313 0.097 0.424 0.079 0.081 0.187 0.125 0.297 0.125 0.042 0 0.084-0.006 0.126-0.020l8.303-2.639c2.272 1.214 4.84 1.855 7.439 1.855 8.666 0 15.716-6.997 15.716-15.598s-7.050-15.599-15.716-15.599zM16.284 27.947c-2.446 0-4.814-0.706-6.851-2.042-0.068-0.045-0.148-0.068-0.228-0.068-0.042 0-0.085 0.006-0.126 0.020l-4.16 1.322 1.343-3.961c0.043-0.128 0.022-0.27-0.058-0.379-1.551-2.119-2.37-4.622-2.37-7.239 0-6.81 5.585-12.35 12.449-12.35s12.448 5.54 12.448 12.35c0 6.809-5.584 12.348-12.448 12.348z"></path>
</symbol>
<symbol id="icon-mail" viewBox="0 0 32 32">
<path d="M30 24c0 0.203-0.039 0.395-0.095 0.578l-8.905-9.578 9-7v16zM3.556 25.946l9.024-9.616 3.42 2.585 3.272-2.601 9.172 9.632c-0.143 0.033-24.745 0.033-24.888 0v0zM2 24v-16l9 7-8.905 9.578c-0.056-0.183-0.095-0.375-0.095-0.578v0zM29 6l-13 10-13-10h26zM28 4h-24c-2.209 0-4 1.791-4 4v16c0 2.209 1.791 4 4 4h24c2.209 0 4-1.791 4-4v-16c0-2.209-1.791-4-4-4v0z"></path>
</symbol>

</svg>